{"asset":{"generator":"3D Builder","version":"2.0"},"scene":0,"scenes":[{"nodes":[0]}],"nodes":[{"children":[1,2]},{"mesh":0,"matrix":[1,0,0,0,0,-1.1920928955078125E-7,-0.99999988079071045,0,0,0.99999988079071045,-1.1920928955078125E-7,0,0,0.0213105957955122,-2.54042120673148E-9,1]},{"mesh":1,"matrix":[1,0,0,0,0,-1.1920928955078125E-7,-0.99999988079071045,0,0,0.99999988079071045,-1.1920928955078125E-7,0,0,0.0213105957955122,-2.54042120673148E-9,1]}],"meshes":[{"primitives":[{"attributes":{"POSITION":0,"TEXCOORD_0":1},"mode":4,"indices":2,"material":0}]},{"primitives":[{"attributes":{"POSITION":3,"TEXCOORD_0":4},"mode":4,"indices":5,"material":0}]}],"materials":[{"pbrMetallicRoughness":{"baseColorFactor":[1,1,1,1],"metallicFactor":0,"roughnessFactor":1,"baseColorTexture":{"index":0,"texCoord":0}},"alphaMode":"OPAQUE"}],"textures":[{"source":0,"sampler":0}],"images":[{"uri":"100.png"}],"samplers":[{"magFilter":9729,"wrapS":10497,"wrapT":10497}],"accessors":[{"bufferView":0,"byteOffset":0,"count":88,"componentType":5126,"type":"VEC3","min":[0.023113997653126717,0,0],"max":[0.044957991689443588,0.032765999436378479,0.021310597658157349]},{"bufferView":1,"byteOffset":0,"count":88,"componentType":5126,"type":"VEC2"},{"bufferView":2,"byteOffset":0,"count":528,"componentType":5125,"type":"SCALAR"},{"bufferView":3,"byteOffset":0,"count":36,"componentType":5126,"type":"VEC3","min":[0,0.00050800171447917819,0],"max":[0.018541999161243439,0.03251199796795845,0.021310597658157349]},{"bufferView":4,"byteOffset":0,"count":36,"componentType":5126,"type":"VEC2"},{"bufferView":5,"byteOffset":0,"count":204,"componentType":5125,"type":"SCALAR"}],"bufferViews":[{"buffer":0,"byteOffset":0,"byteLength":1056,"byteStride":12,"target":34962},{"buffer":0,"byteOffset":1056,"byteLength":704,"byteStride":8,"target":34962},{"buffer":0,"byteOffset":1760,"byteLength":2112,"target":34963},{"buffer":0,"byteOffset":3872,"byteLength":432,"byteStride":12,"target":34962},{"buffer":0,"byteOffset":4304,"byteLength":288,"byteStride":8,"target":34962},{"buffer":0,"byteOffset":4592,"byteLength":816,"target":34963}],"buffers":[{"byteLength":5408,"uri":"10.bin"}]}